<?xml version="1.0" encoding="UTF-8" standalone="no"?><!DOCTYPE svg PUBLIC "-//W3C//DTD SVG 1.1//EN" "http://www.w3.org/Graphics/SVG/1.1/DTD/svg11.dtd"><svg width="100%" height="100%" viewBox="0 0 1875 467" version="1.1" xmlns="http://www.w3.org/2000/svg" xmlns:xlink="http://www.w3.org/1999/xlink" xml:space="preserve" xmlns:serif="http://www.serif.com/" style="fill-rule:evenodd;clip-rule:evenodd;"><g><g><g><path d="M495.409,166.765l-106.945,-0l53.473,53.472l53.472,-53.472Zm-34.549,132.291l-132.552,-132.291l-38.108,38.368l132.552,132.291l38.108,-38.368Zm-101.042,0l-132.552,-132.291l-76.562,-0l170.92,170.659l38.194,-38.368Z" style="fill:#e4e2dd;fill-rule:nonzero;"/></g></g></g><g><g><g><path d="M581.887,223.535l0,52.257c0,17.882 2.778,32.205 16.32,45.747c10.503,10.503 22.048,15.364 38.628,15.885l0,-113.889l-54.948,0Zm-76.302,56.858c0,-30.99 24.566,-55.295 57.031,-56.858l0,113.889c-32.465,-1.562 -57.031,-25.868 -57.031,-57.031Z" style="fill:#e4e2dd;fill-rule:nonzero;"/></g></g></g><g><g><g><path d="M717.165,337.424l-0,-109.028c-0,-17.881 -2.778,-32.204 -16.32,-45.833c-10.503,-10.417 -22.048,-15.278 -38.628,-15.798l-0,170.659l54.948,0Z" style="fill:#e4e2dd;fill-rule:nonzero;"/></g></g></g><g><g><g><path d="M796.481,337.424l0,-109.028c0,-17.881 -2.777,-32.204 -16.319,-45.833c-10.504,-10.417 -22.049,-15.278 -38.629,-15.798l0,170.659l54.948,0Z" style="fill:#e4e2dd;fill-rule:nonzero;"/></g></g></g><g><g><g><path d="M932.395,280.653l-42.708,-42.795l-0,42.795l42.708,0Zm-119.01,-0.26c-0,31.163 24.566,55.469 57.031,57.031l0,-113.889c-32.465,1.563 -57.031,25.868 -57.031,56.858Z" style="fill:#e4e2dd;fill-rule:nonzero;"/></g></g></g><g><g><g><path d="M995.353,337.424l0,-170.659c-16.666,0.52 -28.212,5.381 -38.715,15.798c-13.542,13.629 -16.32,27.952 -16.32,45.833l0,109.028l55.035,0Zm19.184,-113.889l0,42.709l42.709,-42.709l-42.709,0Z" style="fill:#e4e2dd;fill-rule:nonzero;"/></g></g></g><g><g><g><path d="M1402.43,166.765l-106.944,-0l53.472,53.472l53.472,-53.472Zm-34.548,132.291l-132.552,-132.291l-38.108,38.368l132.552,132.291l38.108,-38.368Zm-101.042,0l-132.552,-132.291l-76.563,-0l170.921,170.659l38.194,-38.368Z" style="fill:#e4e2dd;fill-rule:nonzero;"/></g></g></g><g><g><g><path d="M1420.07,166.765l0,42.708l42.708,-42.708l-42.708,-0Zm54.948,170.659l-0,-113.889l-54.948,0l0,113.889l54.948,0Z" style="fill:#e4e2dd;fill-rule:nonzero;"/></g></g></g><g><g><g><path d="M1578.97,254.004l0,-30.469l-30.468,0l30.468,30.469Zm-46.354,45.313l0,-75.782c-22.743,0 -39.67,16.146 -39.67,37.848c-0,21.788 16.927,37.934 39.149,37.934l0.521,-0Zm19.705,38.107c22.222,0 39.149,-16.146 39.149,-37.847c0,-21.788 -16.927,-37.934 -39.67,-37.934l0,75.781l0.521,0Z" style="fill:#e4e2dd;fill-rule:nonzero;"/></g></g></g><g><g><g><path d="M1720.95,280.653l-42.709,-42.795l0,42.795l42.709,0Zm-119.011,-0.26c0,31.163 24.566,55.469 57.032,57.031l-0,-113.889c-32.466,1.563 -57.032,25.868 -57.032,56.858Z" style="fill:#e4e2dd;fill-rule:nonzero;"/></g></g></g><path d="M1807.49,80.881l-300,0l-0,-50l300,0m-350,50l-75.065,0l-0,-50l75.065,0" style="fill:#e4e2dd;fill-rule:nonzero;"/><path d="M1757.36,460.938l-0,-300l50,-0l-0,300m-50,-350l-0,-65.148l50,-0l-0,65.148" style="fill:#e4e2dd;fill-rule:nonzero;"/><path d="M63.281,435.786l425.065,-0" style="fill:none;fill-rule:nonzero;stroke:#e4e2dd;stroke-width:50.34px;"/><path d="M113.607,30.729l-0,302.062l-50.347,-0l-0,-302.062m50.347,352.409l-0,62.739l-50.347,-0l-0,-62.739" style="fill:#e4e2dd;fill-rule:nonzero;"/></svg>