<?xml version="1.0" encoding="UTF-8" standalone="no"?><!DOCTYPE svg PUBLIC "-//W3C//DTD SVG 1.1//EN" "http://www.w3.org/Graphics/SVG/1.1/DTD/svg11.dtd"><svg width="100%" height="100%" viewBox="0 0 930 400" version="1.1" xmlns="http://www.w3.org/2000/svg" xmlns:xlink="http://www.w3.org/1999/xlink" xml:space="preserve" xmlns:serif="http://www.serif.com/" style="fill-rule:evenodd;clip-rule:evenodd;"><g><g><g><path d="M444.141,118.924l-106.945,-0l53.473,53.472l53.472,-53.472Zm-34.549,132.291l-132.552,-132.291l-38.107,38.368l132.552,132.291l38.107,-38.368Zm-101.041,0l-132.552,-132.291l-76.563,-0l170.92,170.659l38.195,-38.368Z" style="fill:#e4e2dd;fill-rule:nonzero;"/></g></g></g><g><g><g><path d="M810.792,118.924l-106.945,-0l53.472,53.472l53.473,-53.472Zm-34.549,132.291l-132.552,-132.291l-38.108,38.368l132.552,132.291l38.108,-38.368Zm-101.042,0l-132.552,-132.291l-76.562,-0l170.92,170.659l38.194,-38.368Z" style="fill:#e4e2dd;fill-rule:nonzero;"/></g></g></g><path d="M911.589,37.023l-213.954,-0" style="fill:none;fill-rule:nonzero;stroke:#e4e2dd;stroke-width:41.67px;"/><path d="M869.097,222.656l0,-125l41.667,0l-0,125m-41.667,-166.666l0,-18.967l41.667,-0l-0,18.967" style="fill:#e4e2dd;fill-rule:nonzero;"/><path d="M21.875,336.675l213.108,0l-0,41.667l-213.108,0" style="fill:#e4e2dd;fill-rule:nonzero;"/><path d="M63.542,171.875l-0,125l-41.667,0l0,-125m41.667,166.667l-0,18.967l-41.667,-0l0,-18.967" style="fill:#e4e2dd;fill-rule:nonzero;"/></svg>